<svg xmlns="http://www.w3.org/2000/svg" viewBox="0 0 494.56 152.08">
  <g id="Layer_2" data-name="Layer 2">
    <g id="Layer_1-2" data-name="Layer 1">
      <path id="outlive-logo-green" d="M100,84.7C89.69,122.64,66,136,45.49,136a47.48,47.48,0,0,1-4.87-.35C18.51,133.43,1.11,116.38.07,96.19-1,76.87,10.51,63,11,62.43a5.06,5.06,0,0,1,7.31-.52,5.21,5.21,0,0,1,.7,7.31c-.18.17-9.4,11.48-8.71,26.45.87,15.14,14.45,27.84,31.5,29.76,22.11,2.26,40-13.93,48-43.51,7.49-28.19,3-49.42-12.52-58.13-12.36-7-29.76-4.52-39.68,5.75C26.87,40.68,29.13,57.21,35.57,68,40.79,76.35,50.36,84.18,62,80.7a5.1,5.1,0,0,1,6.44,3.48A5.18,5.18,0,0,1,65,90.62C50.71,95,35.74,88.18,26.69,73.39c-8.52-13.92-11.13-36,3.48-51.16C43.4,8.65,65.85,5.35,82.56,14.74,92,20.14,112.49,37.54,100,84.7Zm145.31-7.65A5.16,5.16,0,0,0,238.14,79c-7.31,13.4-11,18.8-18.45,26.1-7,6.79-15.84,9.75-19.84,6.62-4.35-3.31-2.78-12.71,4.35-27.85A312.52,312.52,0,0,1,220,55.29h17.57a5.34,5.34,0,0,0,5.22-5.22,5.23,5.23,0,0,0-5.22-5.22h-11C237.27,28.67,246.49,16.14,246.49,16a5.09,5.09,0,0,0-1.05-7.31,5.25,5.25,0,0,0-7.3,1c-.7,1-12,16.18-23.85,35.15h-18.1A5.13,5.13,0,0,0,191,50.07a5.24,5.24,0,0,0,5.22,5.22h11.67c-4.53,7.7-9,15.56-12.63,23.12-.14.18-.3.35-.43.55l-1.74,3.31c-4.52,8-8.87,15.49-14.79,21.92-4.52,5-11.31,10.62-16.88,8.18a4.37,4.37,0,0,1-2.61-3.13c-1-3.83.52-9.92,3.48-16.88,1.74-3.48,3.13-6.44,4-8.7A225.06,225.06,0,0,1,185.75,53.2a5.09,5.09,0,0,0-1-7.3,5.24,5.24,0,0,0-7.31.87c-2.26,3.13-16.53,22.1-24.36,40.37-6.62,13-17.41,28-27.5,25.06-2.78-.87-4.52-2.26-5.39-4.35-1.22-3.13-1.92-10.79,7.83-28.37a228.69,228.69,0,0,1,16-25.06l.87-1.39a5.17,5.17,0,1,0-8.36-6.09l-1,1.39a279.42,279.42,0,0,0-16.71,26.11c-9,16.53-11.83,28.71-8.35,37.24,1.57,3.65,4.87,8.18,12.18,10.44a24.35,24.35,0,0,0,5.74.87c7.84,0,14.8-4.52,20.54-10.79a14.26,14.26,0,0,0,8.35,9.75,17.31,17.31,0,0,0,7.14,1.56c5.74,0,13.05-2.78,21.75-12.18.41-.45.8-.93,1.2-1.39A16.1,16.1,0,0,0,193.41,120,17.5,17.5,0,0,0,204,123.34c7.31,0,15.66-3.66,22.79-10.79,8.53-8.18,12.53-14.27,20.54-28.54A5,5,0,0,0,245.27,77.05Zm121.47,54.29a5.32,5.32,0,0,0-7.31,1.39c-5.92,8.88-31.32,15.49-61.43-2.61a73,73,0,0,0-18.8-8c-.52-7.48,8.88-35.15,39-87.19,9.39-16,5.39-27-1.4-31.67-8.35-5.92-23.14-4.18-33.58,8.53-12.88,15.66-18.28,32.54-12.88,40.89,2.26,3.83,6.44,5.4,11,4.18a5.1,5.1,0,0,0,3.83-6.27A5.28,5.28,0,0,0,279,46.77c-1.22-3,1-14.45,12.18-28.37,6.44-7.83,15.32-9.57,19.49-6.61,4,2.61,3.48,9.39-1.39,17.92-18.62,31.85-39.33,71.7-40.37,90.84a37.06,37.06,0,0,0-16.54,2.61c-7.13,3-12.18,8.36-13.74,14.8a5.27,5.27,0,0,0,10.26,2.43c.7-3.13,3.48-5.92,7.49-7.66,4.7-1.91,10.26-2.26,16.18-1.39a8.26,8.26,0,0,0,4,2.26h1.05a4.79,4.79,0,0,0,2.26-.52,70.33,70.33,0,0,1,12.7,6.09c14.62,8.71,28.72,12.53,40.73,12.88,16.7.52,29.41-5.39,34.8-13.4A5.47,5.47,0,0,0,366.74,131.34Zm-13.4-91a5.83,5.83,0,1,0,0-11.66,5.83,5.83,0,0,0,0,11.66Zm43.51,51a1.72,1.72,0,0,0-3-.18c-2.27,3.13-4.7,6.09-7.14,8.88l-.35.35c-4,4.17-13.4,14.44-18.79,11.48a7.55,7.55,0,0,1-3.83-4.17c-2.26-5.57-.52-13.06,1.22-18.8a131.61,131.61,0,0,1,9.74-22.8c2.61-4.87,5.05-9,7.49-12.88l.17-.34a4.87,4.87,0,0,0-1.57-7,5.56,5.56,0,0,0-7.48,1.74c-2.61,4.17-5.22,8.52-7.83,13.57A156.34,156.34,0,0,0,357.75,78,5.64,5.64,0,0,0,357,79c-.87,1.74-1.91,3.48-2.95,5.4-5.75,10.44-11.66,21.4-21.24,26.62-3.48,1.92-7.3,2.09-9.74.18-2.26-1.57-3-4.36-2.26-8a69.72,69.72,0,0,1,5.74-15.66,125,125,0,0,1,6.09-11.31c1.91-3.31,4-6.79,6.44-10.27,1.74-2.79,3.48-5.4,5.39-8,1.05-1.56,2.09-3,3.31-4.52l.17-.18a5.27,5.27,0,0,0-8.35-6.43l-.35.52c-1,1.56-2.26,3-3.3,4.52a97.87,97.87,0,0,0-5.57,8.36A121.68,121.68,0,0,0,323.58,71c-2.61,4.35-4.7,8.35-6.61,12.18a75.7,75.7,0,0,0-6.27,17.75c-1.74,7.66.7,14.62,6.09,18.79A17.33,17.33,0,0,0,327.24,123,22.38,22.38,0,0,0,338,120c5.92-3.26,10.61-8,14.6-13.4a23.72,23.72,0,0,0,1.06,4.18,20,20,0,0,0,6.44,8.7,14.74,14.74,0,0,0,9.39,3.31c10.1,0,19.49-10.1,24.54-15.49l.35-.18q3.39-3.91,6.79-8.35a1.64,1.64,0,0,0-.18-2.26A27.27,27.27,0,0,1,396.85,91.32Zm96.93-7.14c-7,12.36-17.06,27.67-31.67,35.33A30.62,30.62,0,0,1,448,123a23.69,23.69,0,0,1-17.75-7.48c-4.67-4.85-6.6-10.85-6.69-17.25a18.26,18.26,0,0,1-6.36,1.41,20,20,0,0,1-13.4-4.35c-4-3.31-6.27-9.22-6.27-9.22a38.44,38.44,0,0,1-2.26-19.84c1.22-8,3-13.93,5.74-18.62,4-7,9.4-7.31,12.36-6.79a10.14,10.14,0,0,1,7.13,4.7c3.14,5,1.57,11.13.7,14.44a81.64,81.64,0,0,1-8.7,21.58c-1.05,1.57-1.92,3.31-2.79,4.7v.17a8.64,8.64,0,0,0,7.14,2.79c4-.18,7-3.13,10.61-10.1a5.56,5.56,0,0,1,.64-.94A66.72,66.72,0,0,1,435,65.91c8.35-12.36,22.45-24.89,34.28-20a13.76,13.76,0,0,1,7.66,8.52c1,3.66,1.22,9.75-4.35,17.75a38.11,38.11,0,0,1-24,16.36,29.9,29.9,0,0,1-13-.17c-2.26,7.83-2.09,15.31,2.26,19.84,7.14,7.48,16.71,3.48,19.49,1.91,12.18-6.26,21.23-20,27.5-31.15a5.36,5.36,0,0,1,7.13-1.91A5,5,0,0,1,493.78,84.18ZM405.37,72.7a74.58,74.58,0,0,0,5.75-15.15c.34-1.21,1.21-4.87.52-6.43h-.18s-.52.17-1.39,1.74c-2.09,3.48-3.48,8.35-4.52,15A42.71,42.71,0,0,0,405.37,72.7Zm34.11,5.74a19.72,19.72,0,0,0,7.14-.18,27.91,27.91,0,0,0,17.4-12c2.44-3.48,3.48-6.79,2.78-8.88a3,3,0,0,0-1.56-1.91c-4-1.57-13.58,4.52-21.75,16.36C442.09,73.91,440.7,76.18,439.48,78.44Z" fill="#2b6b5a"/>
    </g>
  </g>
</svg>
