<svg xmlns="http://www.w3.org/2000/svg" viewBox="0 0 544.11 171.56"><g data-name="Layer 2"><path d="M85.78 34.81a51 51 0 1 0 51 51 51 51 0 0 0-51-51Zm0 87.93a37 37 0 1 1 37-37 37 37 0 0 1-37 37Zm27-37a7 7 0 0 0-14 0 13 13 0 0 1-26.09 0 7 7 0 1 0-14 0 27 27 0 0 0 54.09 0Zm38.56-55.7-9.9-9.9-16.31 16.3 9.9 9.9ZM92.77 0h-14v23h14ZM46.35 36.45 30.06 20.17l-9.88 9.91 16.27 16.27ZM23 78.78H0v14h23Zm23.34 56.33-9.9-9.9-16.27 16.27 9.91 9.9Zm46.42 13.41h-14v23h14Zm58.61-7-16.31-16.3-9.9 9.9 16.31 16.3Zm1.27-78.93h18v42.73c0 8.77 2.26 14.71 11.18 14.71 13 0 20.23-11.46 20.23-24.33V62.55h18v72.15h-17.31v-8.2a46.14 46.14 0 0 1 .28-5.09h-.28c-3.54 7.49-12.74 15-25.05 15-15.42 0-25-7.78-25-27.44ZM242.91 78h-9.33V63.68h9.76v-20.8h17.54v20.8h16.41V78h-16.41v28c0 11.89 9.34 13.59 14.29 13.59a16.07 16.07 0 0 0 3.25-.29V135a31.26 31.26 0 0 1-5.51.42c-10.05 0-30-3-30-27.16ZM296 34.25h18.25V119h43.43v15.7H296Zm73.42 0h17.83v16h-17.86Zm0 28.3h18v72.15h-18Zm27.87 0h19l15 44.71c1.42 4.24 2.41 10.89 2.55 10.89h.16c.14 0 1.13-6.65 2.55-10.89l15-44.71h19l-25.9 72.15h-21.22Zm146.82 32.54c0-19.1-11.18-34.24-32-34.24-21.51 0-36.65 15.56-36.65 37.78 0 20.51 14.86 37.77 38.77 37.77a45.06 45.06 0 0 0 29-10.33l-6.93-12.87s-9.2 7.92-20.8 7.92c-10.75 0-20.51-6.51-21.64-19.1h49.8s.45-4.81.45-6.93Zm-49.66-5.38c1.7-9.33 8.07-15 17.26-15 7.93 0 14 5.23 14.29 15Z" fill="#ffae0b" data-name="Layer 1"/></g></svg>